<svg id="Grupo_4400" data-name="Grupo 4400" xmlns="http://www.w3.org/2000/svg" width="33.651" height="39.345" viewBox="0 0 33.651 39.345">
  <path id="Trazado_724" data-name="Trazado 724" d="M3.111-.049l16.632,0C20.824,1.042,27.316,7.6,29.587,9.9V36.132a3.13,3.13,0,0,1-3.111,3.149H3.111A3.13,3.13,0,0,1,0,36.132V3.1A3.13,3.13,0,0,1,3.111-.049Z" transform="translate(4.064 0.063)" fill="#fff"/>
  <g id="Grupo_1192" data-name="Grupo 1192">
    <path id="Trazado_722" data-name="Trazado 722" d="M1489.432,662.327h-16.579a3.243,3.243,0,0,0-3.219,3.259V698.4a3.243,3.243,0,0,0,3.219,3.259H1496a3.243,3.243,0,0,0,3.219-3.259v-26.16Zm7.981,36.071a1.421,1.421,0,0,1-1.411,1.428h-23.149a1.421,1.421,0,0,1-1.411-1.428V665.586a1.421,1.421,0,0,1,1.411-1.428h15.83l.009.009v8.824h8.716l.006.006Z" transform="translate(-1465.597 -662.327)" fill="#fc7c6b"/>
    <path id="Trazado_723" data-name="Trazado 723" d="M1448.567,945.007a1.255,1.255,0,0,1-1.21,1.289h-26.613a1.255,1.255,0,0,1-1.21-1.289V932.116a1.255,1.255,0,0,1,1.21-1.289h26.613a1.255,1.255,0,0,1,1.21,1.289Z" transform="translate(-1419.534 -912.729)" fill="#f15642"/>
    <text id="PDF" transform="translate(11.361 27.673)" fill="#f8f8f8" font-size="8" font-family="Montserrat-ExtraBold, Montserrat" font-weight="800" letter-spacing="0.04em" style="isolation: isolate"><tspan x="-9.1" y="0">PDF</tspan></text>
  </g>
</svg>
